<svg xmlns="http://www.w3.org/2000/svg" viewBox="0 0 500 500" width="500" height="500">

  <defs>
    <filter id="hard-shadow" x="-20%" y="-20%" width="150%" height="150%">
      <feDropShadow dx="-10" dy="12" stdDeviation="0" flood-color="#000000" flood-opacity="1"/>
    </filter>
    <filter id="sketch" x="-20%" y="-20%" width="140%" height="140%">
      <feTurbulence type="fractalNoise" baseFrequency="0.015" numOctaves="2" result="noise" />
      <feDisplacementMap in="SourceGraphic" in2="noise" scale="8" xChannelSelector="R" yChannelSelector="G" />
    </filter>
  </defs>

  <path d="M 250,40 C 380,35 450,110 460,240 C 470,370 380,450 250,460 C 120,470 40,380 45,250 C 50,120 120,45 250,40 Z"
        fill="#FFFFFF"
        stroke="#ec4899"
        stroke-width="24"
        stroke-linejoin="round"
        filter="url(#hard-shadow)"/>

  <g transform="translate(250, 250) scale(2.8) translate(-616, -179)" filter="url(#sketch)">
      <path fill="#1a1a1a" opacity="1.000000" stroke="none" 
          d="M544.770386,119.063469 C545.239502,117.760048 545.708618,116.456635 546.849609,115.237656 C548.681763,115.220604 549.842041,115.119118 551.002258,115.017632 C567.155457,114.851318 583.320007,114.999847 599.458435,114.421585 C612.982483,113.937012 625.413635,116.932755 637.415710,123.049881 C648.814636,128.859650 660.725586,133.667252 672.107849,139.507034 C691.128845,149.266006 694.442200,172.851303 679.201660,187.763031 C678.496643,188.452820 677.771057,189.121597 676.734009,190.104462 C683.185547,196.054214 687.677795,202.889542 688.270508,211.893860 C689.460754,229.974991 677.978516,243.519501 659.893372,243.893173 C637.416077,244.357620 614.897339,244.661163 592.452332,243.712814 C585.780029,243.430893 579.295593,238.702759 572.182739,235.656479 C569.883484,234.409103 568.121948,233.526199 566.370483,232.623642 C559.554443,229.111267 552.741760,225.592651 546.247192,221.597473 C546.709045,219.134888 546.973999,217.151306 546.975708,215.167496 C547.000549,186.353607 546.991211,157.539719 546.987549,128.725815 C546.986328,118.900520 546.983459,118.901299 556.639587,117.735489 C556.740967,117.723244 556.822754,117.548531 556.913696,117.449661 C556.825256,117.032928 556.736816,116.616203 556.648376,116.199471 C552.689087,117.154137 548.729736,118.108803 544.770386,119.063469 M591.382019,147.882614 C579.751770,142.777710 568.121521,137.672791 555.944336,132.327835 C555.944336,143.275391 555.888184,153.387894 556.029663,163.497635 C556.044128,164.529419 557.002014,166.024841 557.931641,166.494339 C569.170532,172.170349 580.486450,177.693817 592.437927,183.827286 C614.410095,183.902237 636.394043,183.587189 658.348450,184.249847 C666.779480,184.504303 676.091248,176.064865 676.065735,166.999374 C676.036255,156.531586 668.959290,148.144791 659.000000,148.080627 C636.693909,147.936890 614.385681,148.112213 591.382019,147.882614 M591.389038,196.047852 C579.752380,190.577225 568.115662,185.106598 555.943726,179.384323 C555.943726,190.555420 555.858154,200.873627 556.052490,211.186569 C556.076660,212.468628 557.288025,214.296036 558.452820,214.900513 C569.365967,220.564148 580.388916,226.016159 592.157227,232.004700 C614.452454,232.085007 636.747742,232.236954 659.042847,232.212341 C668.721375,232.201660 675.986511,224.707382 676.069824,215.068848 C676.160583,204.567490 668.805908,196.130920 659.014221,196.097473 C636.717224,196.021286 614.419373,196.198441 591.389038,196.047852 z"/>
      <path fill="#ec4899" opacity="1.000000" stroke="none" 
          d="M545.927795,222.076355 C552.741760,225.592651 559.554443,229.111267 566.370483,232.623642 C568.121948,233.526199 569.883484,234.409103 571.827515,235.588043 C570.980042,235.964752 569.794678,236.432541 568.933289,236.088638 C549.811096,228.453995 530.721069,220.738358 511.640106,213.000748 C510.518402,212.545868 509.524231,211.776535 507.178589,210.389435 C520.238831,209.965271 531.771790,209.590714 543.946289,209.052231 C544.587830,208.888321 544.917908,209.015945 544.812866,209.466354 C545.092041,213.949509 545.476196,217.982269 545.887024,222.019409 C545.913635,222.023819 545.927795,222.076355 545.927795,222.076355 z"/>
      <path fill="#1a1a1a" opacity="1.000000" stroke="none" 
          d="M544.622620,161.448700 C545.167297,162.008469 545.944397,162.985016 545.951111,163.966904 C546.033569,175.910034 546.011719,187.853958 545.975098,199.797562 C545.973206,200.403702 545.590820,201.008652 545.062256,201.789093 C544.658325,188.598663 544.577698,175.233322 544.622620,161.448700 z"/>
      <path fill="#1a1a1a" opacity="1.000000" stroke="none" 
          d="M544.627930,133.272171 C544.962585,136.133896 545.170532,139.379379 545.062012,142.794327 C544.664185,139.861160 544.582703,136.758560 544.627930,133.272171 z"/>
      <path fill="#1a1a1a" opacity="1.000000" stroke="none" 
          d="M544.615356,149.455658 C544.944946,151.570404 545.148193,154.111450 545.049561,156.808075 C544.661438,154.603088 544.575195,152.242538 544.615356,149.455658 z"/>
      <path fill="#ec4899" opacity="1.000000" stroke="none" 
          d="M550.760376,114.816391 C549.842041,115.119118 548.681763,115.220604 547.258423,115.186836 C548.169739,114.906105 549.344116,114.760635 550.760376,114.816391 z"/>
      <path fill="#ec4899" opacity="1.000000" stroke="none" 
          d="M591.755432,196.160248 C592.009766,207.712982 591.897705,219.153305 591.582886,231.061508 C580.388916,226.016159 569.365967,220.564148 558.452820,214.900513 C557.288025,214.296036 556.076660,212.468628 556.052490,211.186569 C555.858154,200.873627 555.943726,190.555420 555.943726,179.384323 C568.115662,185.106598 579.752380,190.577225 591.755432,196.160248 z"/>
      <path fill="#ec4899" opacity="1.000000" stroke="none" 
          d="M591.730164,148.020111 C592.030457,159.537247 591.982605,170.916885 591.858521,182.776733 C580.486450,177.693817 569.170532,172.170349 557.931641,166.494339 C557.002014,166.024841 556.044128,164.529419 556.029663,163.497635 C555.888184,153.387894 555.944336,143.275391 555.944336,132.327835 C568.121521,137.672791 579.751770,142.777710 591.730164,148.020111 z"/>
      <path fill="#1a1a1a" opacity="1.000000" stroke="none" 
          d="M544.812866,209.466354 C545.291565,212.987839 545.665222,216.959717 545.949707,221.473312 C545.476196,217.982269 545.092041,213.949509 544.812866,209.466354 z"/>
  </g>
</svg>
