<svg version="1.1" id="Layer_1" xmlns="http://www.w3.org/2000/svg" xmlns:xlink="http://www.w3.org/1999/xlink" x="0px" y="0px"
     width="100%" viewBox="0 0 1195 359" enable-background="new 0 0 1195 359" xml:space="preserve">
  <defs>
    <filter id="sketch" x="-10%" y="-10%" width="120%" height="120%">
      <feTurbulence type="fractalNoise" baseFrequency="0.015" numOctaves="2" result="noise" />
      <feDisplacementMap in="SourceGraphic" in2="noise" scale="12" xChannelSelector="R" yChannelSelector="G" />
    </filter>
  </defs>
  <g filter="url(#sketch)">
<path fill="none" opacity="1.000000" stroke="none" 
    d="M1196.000000,2.000000 C1196.000000,120.694702 1196.000000,239.389404 1195.778809,358.647156 C1195.288086,359.414398 1195.102173,359.677643 1195.000000,360.000000 C797.060303,360.000000 399.120544,360.000000 1.090419,360.000000 C1.090419,240.411804 1.090419,120.823502 1.090419,1.000000 C398.694672,1.000000 796.389404,1.000000 1194.649658,1.220141 C1195.409302,1.721360 1195.670898,1.907933 1196.000000,2.000000 M544.440796,143.791656 C544.541138,145.537552 544.641418,147.283447 544.488892,149.881973 C544.575195,152.242538 544.661438,154.603088 544.442566,157.742676 C544.544434,158.838257 544.646240,159.933853 544.497131,161.867966 C544.577698,175.233322 544.658325,188.598663 544.433472,202.790131 C544.369202,204.845657 544.304932,206.901184 543.304749,209.216141 C531.771790,209.590714 520.238831,209.965271 507.178589,210.389435 C509.524231,211.776535 510.518402,212.545868 511.640106,213.000748 C530.721069,220.738358 549.811096,228.453995 568.933289,236.088638 C569.794678,236.432541 570.980042,235.964752 572.725037,236.011917 C579.295593,238.702759 585.780029,243.430893 592.452332,243.712814 C614.897339,244.661163 637.416077,244.357620 659.893372,243.893173 C677.978516,243.519501 689.460754,229.974991 688.270508,211.893860 C687.677795,202.889542 683.185547,196.054214 676.734009,190.104462 C677.771057,189.121597 678.496643,188.452820 679.201660,187.763031 C694.442200,172.851303 691.128845,149.266006 672.107849,139.507034 C660.725586,133.667252 648.814636,128.859650 637.415710,123.049881 C625.413635,116.932755 612.982483,113.937012 599.458435,114.421585 C583.320007,114.999847 567.155457,114.851318 550.518555,114.615158 C549.344116,114.760635 548.169739,114.906105 546.177734,115.153214 C545.708618,116.456635 545.239502,117.760048 544.475281,119.942413 C544.568420,124.257744 544.661560,128.573074 544.501282,133.655945 C544.582703,136.758560 544.664185,139.861160 544.440796,143.791656 M434.667877,142.917969 C434.671814,162.174576 434.640778,181.431290 434.692139,200.687775 C434.725281,213.124710 434.879089,225.561340 434.905151,238.855972 C436.429626,239.156860 437.953064,239.712784 439.478729,239.718933 C453.801544,239.776794 468.124756,239.740082 482.447845,239.732010 C486.568451,239.729675 490.689087,239.731644 494.993164,239.731644 C494.993164,235.307907 494.993164,231.414749 494.993164,227.046906 C479.311737,227.046906 463.913452,227.046906 448.377380,227.046906 C448.377380,216.489075 448.377380,206.410629 448.377380,195.720673 C462.476288,195.720673 476.346252,195.720673 490.186646,195.720673 C490.186646,191.193054 490.186646,187.282913 490.186646,183.029175 C476.106995,183.029175 462.351776,183.029175 448.385925,183.029175 C448.385925,172.782028 448.385925,162.892502 448.385925,152.466949 C464.054138,152.466949 479.447540,152.466949 494.932495,152.466949 C494.932495,149.282227 494.932495,146.633713 495.162079,143.632050 C495.086548,143.093765 495.011017,142.555466 495.004517,141.296463 C494.003510,141.000504 493.002533,140.704544 491.086609,140.191895 C482.057465,140.263855 473.028320,140.335815 463.084351,140.193909 C459.277740,140.187943 455.467773,140.077499 451.665344,140.200851 C446.160431,140.379440 440.660980,140.727219 434.776611,141.442810 C434.822174,141.631760 434.867706,141.820694 434.667877,142.917969 M128.504715,179.923843 C128.583755,199.270264 128.662781,218.616669 128.688812,238.838196 C132.989532,239.218704 137.290253,239.599197 142.049988,240.020309 C142.049988,210.273102 142.049988,181.552612 142.049988,152.283600 C151.856216,152.283600 161.254074,152.283600 170.456833,152.283600 C170.456833,147.967758 170.456833,144.216873 170.456833,140.560806 C146.728043,140.560806 123.363724,140.560806 100.057022,140.560806 C100.057022,144.713974 100.057022,148.448105 100.057022,152.681671 C109.630272,152.681671 118.884224,152.681671 128.791626,152.681671 C128.791626,161.799622 128.791626,170.413651 128.504715,179.923843 M961.875916,189.639297 C961.875916,173.304977 961.875916,156.970673 961.875916,140.203339 C957.828308,140.203339 954.388062,140.097275 950.964050,140.286514 C950.215271,140.327896 949.524658,141.422577 948.542480,142.933350 C948.536316,164.173386 948.495483,185.413513 948.538757,206.653442 C948.560059,217.094574 948.737122,227.535385 948.814697,238.842712 C953.071960,239.260330 957.329224,239.677948 961.833374,240.119797 C961.833374,230.864975 961.754517,222.706833 961.897461,214.552582 C961.927307,212.847244 962.312012,210.782120 963.327454,209.523849 C967.559204,204.280350 972.094238,199.281631 976.708679,193.973724 C977.712585,195.438324 978.461731,196.517746 979.197266,197.606415 C987.953003,210.565140 996.683044,223.541367 1005.497192,236.460220 C1006.379517,237.753448 1007.699585,239.556458 1008.935181,239.656479 C1013.608643,240.034851 1018.331055,239.808624 1024.018921,239.808624 C1010.687073,220.303329 998.055298,201.822388 985.422302,183.339615 C997.484070,169.075790 1009.335999,155.060089 1021.830200,140.284836 C1016.097107,140.284836 1011.483887,140.131287 1006.893250,140.385071 C1005.632507,140.454773 1004.131714,141.482483 1003.260742,142.510727 C989.810120,158.390686 976.445251,174.343323 962.542053,190.537384 C962.352966,190.576477 962.163879,190.615555 961.875916,189.639297 M309.642181,181.499893 C309.642181,200.781540 309.642181,220.063187 309.642181,239.409714 C314.369324,239.409714 318.580139,239.409714 323.046783,239.409714 C323.046783,214.803589 323.046783,190.577957 323.046783,164.989532 C324.244812,167.016068 324.798523,167.920593 325.321655,168.842484 C333.933014,184.018097 342.635284,199.143509 351.075348,214.413849 C352.942932,217.792770 355.117035,218.938080 358.947296,218.900558 C362.574188,218.865021 364.541260,217.754303 366.287720,214.570816 C374.684143,199.265717 383.338806,184.102234 391.915436,168.896194 C392.493713,167.870911 393.184753,166.909241 393.823395,165.917999 C394.116089,166.016266 394.408783,166.114517 394.701477,166.212784 C394.701477,190.629135 394.701477,215.045486 394.701477,239.473450 C399.241302,239.473450 403.340698,239.473450 407.609863,239.473450 C407.609863,206.313675 407.609863,173.438416 407.609863,140.158661 C404.658905,140.158661 401.995789,140.402054 399.395325,140.102036 C395.422333,139.643646 393.112976,141.129791 391.163330,144.684204 C384.366364,157.076111 377.222321,169.277664 370.210815,181.551910 C366.467987,188.104034 362.726288,194.656845 358.784454,201.558975 C347.513855,181.909531 336.627411,162.847412 325.602356,143.865768 C324.723419,142.352463 323.001373,140.556839 321.471436,140.346802 C317.748047,139.835663 313.907166,140.180359 309.645355,140.180359 C309.645355,153.904556 309.645355,167.202225 309.642181,181.499893 M275.598694,224.096558 C282.537384,215.597717 286.289551,205.871933 287.322479,194.944061 C290.000305,166.614212 270.666992,141.961853 243.081604,138.741989 C213.829361,135.327560 189.544800,153.997620 185.625854,182.914215 C182.483521,206.100433 193.905380,227.598419 214.435532,237.139221 C235.063934,246.725677 259.738159,241.631226 275.598694,224.096558 M713.389893,216.084076 C725.461975,235.931992 745.360352,244.906357 767.845825,240.644257 C788.778809,236.676437 804.274414,220.760345 807.481506,198.547760 C810.503845,177.614807 804.114258,159.641815 786.349487,147.470932 C768.724182,135.395523 749.804749,135.052292 731.261292,145.784073 C708.000305,159.246033 700.248169,189.571609 713.389893,216.084076 M915.969910,222.454865 C926.220520,208.626404 929.252869,193.259842 925.236206,176.625244 C918.630005,149.265930 890.738525,133.175858 862.422546,140.173813 C835.961182,146.713440 819.347839,175.706238 826.697327,203.135117 C831.723938,221.894577 843.354309,235.086655 862.444702,239.801300 C883.175293,244.921021 901.313416,239.615677 915.969910,222.454865 M1074.097290,241.723495 C1075.575562,241.483719 1077.057373,241.263443 1078.531738,241.001083 C1090.707886,238.834244 1099.953125,230.339661 1102.008545,219.440323 C1104.527222,206.086533 1099.916016,195.123322 1088.222656,188.514938 C1082.773438,185.435516 1076.632812,183.603195 1070.911987,180.973953 C1065.968750,178.702148 1060.732056,176.701202 1056.423096,173.504776 C1050.266602,168.937744 1050.675293,160.280380 1056.534546,155.330093 C1065.064575,148.123413 1079.300537,150.049789 1085.635010,159.285126 C1086.560425,160.634338 1087.387207,162.051208 1088.435547,163.715927 C1092.448486,161.889465 1096.281860,160.144791 1100.072021,158.419754 C1092.267944,137.655060 1069.577393,134.637909 1054.837646,141.289459 C1044.884521,145.780930 1038.854248,153.610641 1038.764893,165.055923 C1038.675293,176.548126 1044.737183,184.138031 1054.648193,188.889343 C1059.116699,191.031525 1064.002075,192.286224 1068.573120,194.237015 C1073.435059,196.311996 1078.561279,198.142090 1082.843628,201.124985 C1092.530029,207.872284 1091.099365,221.546204 1080.521973,226.846237 C1069.987061,232.124969 1056.872803,227.845383 1050.924438,217.107986 C1049.513550,214.561127 1048.379272,211.860931 1047.047607,209.085068 C1042.841309,211.058228 1039.020142,212.850739 1035.304932,214.593552 C1040.157715,232.697372 1053.421387,242.047241 1074.097290,241.723495 z"/>
<path fill="none" opacity="1.000000" stroke="none" 
    d="M1195.500000,360.000000 C1195.102173,359.677643 1195.288086,359.414398 1195.778809,359.105103 C1196.000000,359.333344 1196.000000,359.666656 1195.500000,360.000000 z"/>
<path fill="none" opacity="1.000000" stroke="none" 
    d="M1196.000000,1.500000 C1195.670898,1.907933 1195.409302,1.721360 1195.107666,1.220141 C1195.333374,1.000000 1195.666626,1.000000 1196.000000,1.500000 z"/>
<path fill="#070807" opacity="1.000000" stroke="none" 
    d="M544.770386,119.063469 C545.239502,117.760048 545.708618,116.456635 546.849609,115.237656 C548.681763,115.220604 549.842041,115.119118 551.002258,115.017632 C567.155457,114.851318 583.320007,114.999847 599.458435,114.421585 C612.982483,113.937012 625.413635,116.932755 637.415710,123.049881 C648.814636,128.859650 660.725586,133.667252 672.107849,139.507034 C691.128845,149.266006 694.442200,172.851303 679.201660,187.763031 C678.496643,188.452820 677.771057,189.121597 676.734009,190.104462 C683.185547,196.054214 687.677795,202.889542 688.270508,211.893860 C689.460754,229.974991 677.978516,243.519501 659.893372,243.893173 C637.416077,244.357620 614.897339,244.661163 592.452332,243.712814 C585.780029,243.430893 579.295593,238.702759 572.182739,235.656479 C569.883484,234.409103 568.121948,233.526199 566.370483,232.623642 C559.554443,229.111267 552.741760,225.592651 546.247192,221.597473 C546.709045,219.134888 546.973999,217.151306 546.975708,215.167496 C547.000549,186.353607 546.991211,157.539719 546.987549,128.725815 C546.986328,118.900520 546.983459,118.901299 556.639587,117.735489 C556.740967,117.723244 556.822754,117.548531 556.913696,117.449661 C556.825256,117.032928 556.736816,116.616203 556.648376,116.199471 C552.689087,117.154137 548.729736,118.108803 544.770386,119.063469 M591.382019,147.882614 C579.751770,142.777710 568.121521,137.672791 555.944336,132.327835 C555.944336,143.275391 555.888184,153.387894 556.029663,163.497635 C556.044128,164.529419 557.002014,166.024841 557.931641,166.494339 C569.170532,172.170349 580.486450,177.693817 592.437927,183.827286 C614.410095,183.902237 636.394043,183.587189 658.348450,184.249847 C666.779480,184.504303 676.091248,176.064865 676.065735,166.999374 C676.036255,156.531586 668.959290,148.144791 659.000000,148.080627 C636.693909,147.936890 614.385681,148.112213 591.382019,147.882614 M591.389038,196.047852 C579.752380,190.577225 568.115662,185.106598 555.943726,179.384323 C555.943726,190.555420 555.858154,200.873627 556.052490,211.186569 C556.076660,212.468628 557.288025,214.296036 558.452820,214.900513 C569.365967,220.564148 580.388916,226.016159 592.157227,232.004700 C614.452454,232.085007 636.747742,232.236954 659.042847,232.212341 C668.721375,232.201660 675.986511,224.707382 676.069824,215.068848 C676.160583,204.567490 668.805908,196.130920 659.014221,196.097473 C636.717224,196.021286 614.419373,196.198441 591.389038,196.047852 z"/>
<path fill="#090909" opacity="1.000000" stroke="none" 
    d="M309.643768,180.999893 C309.645355,167.202225 309.645355,153.904556 309.645355,140.180359 C313.907166,140.180359 317.748047,139.835663 321.471436,140.346802 C323.001373,140.556839 324.723419,142.352463 325.602356,143.865768 C336.627411,162.847412 347.513855,181.909531 358.784454,201.558975 C362.726288,194.656845 366.467987,188.104034 370.210815,181.551910 C377.222321,169.277664 384.366364,157.076111 391.163330,144.684204 C393.112976,141.129791 395.422333,139.643646 399.395325,140.102036 C401.995789,140.402054 404.658905,140.158661 407.609863,140.158661 C407.609863,173.438416 407.609863,206.313675 407.609863,239.473450 C403.340698,239.473450 399.241302,239.473450 394.701477,239.473450 C394.701477,215.045486 394.701477,190.629135 394.701477,166.212784 C394.408783,166.114517 394.116089,166.016266 393.823395,165.917999 C393.184753,166.909241 392.493713,167.870911 391.915436,168.896194 C383.338806,184.102234 374.684143,199.265717 366.287720,214.570816 C364.541260,217.754303 362.574188,218.865021 358.947296,218.900558 C355.117035,218.938080 352.942932,217.792770 351.075348,214.413849 C342.635284,199.143509 333.933014,184.018097 325.321655,168.842484 C324.798523,167.920593 324.244812,167.016068 323.046783,164.989532 C323.046783,190.577957 323.046783,214.803589 323.046783,239.409714 C318.580139,239.409714 314.369324,239.409714 309.642181,239.409714 C309.642181,220.063187 309.642181,200.781540 309.643768,180.999893 z"/>
<path fill="#0A0A0A" opacity="1.000000" stroke="none" 
    d="M275.355194,224.354034 C259.738159,241.631226 235.063934,246.725677 214.435532,237.139221 C193.905380,227.598419 182.483521,206.100433 185.625854,182.914215 C189.544800,153.997620 213.829361,135.327560 243.081604,138.741989 C270.666992,141.961853 290.000305,166.614212 287.322479,194.944061 C286.289551,205.871933 282.537384,215.597717 275.355194,224.354034 M232.972565,151.188919 C230.368164,151.694504 227.698593,151.982635 225.169769,152.740448 C206.791443,158.247986 196.441605,175.804794 199.171448,196.676620 C201.314651,213.063248 214.127014,226.017944 230.880524,228.737930 C246.852173,231.330994 262.862305,222.857040 269.969360,208.117126 C282.818359,181.468567 264.704742,149.132477 232.972565,151.188919 z"/>
<path fill="#0A0A0A" opacity="1.000000" stroke="none" 
    d="M713.200195,215.766541 C700.248169,189.571609 708.000305,159.246033 731.261292,145.784073 C749.804749,135.052292 768.724182,135.395523 786.349487,147.470932 C804.114258,159.641815 810.503845,177.614807 807.481506,198.547760 C804.274414,220.760345 788.778809,236.676437 767.845825,240.644257 C745.360352,244.906357 725.461975,235.931992 713.200195,215.766541 M731.387268,161.908188 C715.116638,178.451324 717.905457,205.006348 731.285828,217.944748 C742.463379,228.753052 755.745728,232.144348 770.386108,226.883301 C784.693054,221.742096 792.125916,210.690384 794.344543,195.800995 C796.816162,179.213226 789.155396,162.983780 774.935669,155.264313 C761.358215,147.893524 744.210144,150.342819 731.387268,161.908188 z"/>
<path fill="#0A0A0A" opacity="1.000000" stroke="none" 
    d="M915.747314,222.733368 C901.313416,239.615677 883.175293,244.921021 862.444702,239.801300 C843.354309,235.086655 831.723938,221.894577 826.697327,203.135117 C819.347839,175.706238 835.961182,146.713440 862.422546,140.173813 C890.738525,133.175858 918.630005,149.265930 925.236206,176.625244 C929.252869,193.259842 926.220520,208.626404 915.747314,222.733368 M843.923035,169.543274 C840.043640,176.001312 838.635986,183.095642 838.569336,190.521439 C838.347717,215.194778 860.566467,233.812408 883.748596,228.391708 C900.915588,224.377533 912.649048,210.254028 913.661499,192.385742 C914.652832,174.889740 904.029419,158.388809 888.046448,153.082352 C875.171631,148.807800 855.765503,150.363525 843.923035,169.543274 z"/>
<path fill="#0B0B0B" opacity="1.000000" stroke="none" 
    d="M1073.649536,241.757050 C1053.421387,242.047241 1040.157715,232.697372 1035.304932,214.593552 C1039.020142,212.850739 1042.841309,211.058228 1047.047607,209.085068 C1048.379272,211.860931 1049.513550,214.561127 1050.924438,217.107986 C1056.872803,227.845383 1069.987061,232.124969 1080.521973,226.846237 C1091.099365,221.546204 1092.530029,207.872284 1082.843628,201.124985 C1078.561279,198.142090 1073.435059,196.311996 1068.573120,194.237015 C1064.002075,192.286224 1059.116699,191.031525 1054.648193,188.889343 C1044.737183,184.138031 1038.675293,176.548126 1038.764893,165.055923 C1038.854248,153.610641 1044.884521,145.780930 1054.837646,141.289459 C1069.577393,134.637909 1092.267944,137.655060 1100.072021,158.419754 C1096.281860,160.144791 1092.448486,161.889465 1088.435547,163.715927 C1087.387207,162.051208 1086.560425,160.634338 1085.635010,159.285126 C1079.300537,150.049789 1065.064575,148.123413 1056.534546,155.330093 C1050.675293,160.280380 1050.266602,168.937744 1056.423096,173.504776 C1060.732056,176.701202 1065.968750,178.702148 1070.911987,180.973953 C1076.632812,183.603195 1082.773438,185.435516 1088.222656,188.514938 C1099.916016,195.123322 1104.527222,206.086533 1102.008545,219.440323 C1099.953125,230.339661 1090.707886,238.834244 1078.531738,241.001083 C1077.057373,241.263443 1075.575562,241.483719 1073.649536,241.757050 z"/>
<path fill="#090909" opacity="1.000000" stroke="none" 
    d="M948.807251,142.032166 C949.524658,141.422577 950.215271,140.327896 950.964050,140.286514 C954.388062,140.097275 957.828308,140.203339 961.875916,140.203339 C961.875916,156.970673 961.875916,173.304977 962.076904,190.260590 C962.538757,190.680969 962.799683,190.480072 963.060608,190.279160 C976.445251,174.343323 989.810120,158.390686 1003.260742,142.510727 C1004.131714,141.482483 1005.632507,140.454773 1006.893250,140.385071 C1011.483887,140.131287 1016.097107,140.284836 1021.830200,140.284836 C1009.335999,155.060089 997.484070,169.075790 985.422302,183.339615 C998.055298,201.822388 1010.687073,220.303329 1024.018921,239.808624 C1018.331055,239.808624 1013.608643,240.034851 1008.935181,239.656479 C1007.699585,239.556458 1006.379517,237.753448 1005.497192,236.460220 C996.683044,223.541367 987.953003,210.565140 979.197266,197.606415 C978.461731,196.517746 977.712585,195.438324 976.708679,193.973724 C972.094238,199.281631 967.559204,204.280350 963.327454,209.523849 C962.312012,210.782120 961.927307,212.847244 961.897461,214.552582 C961.754517,222.706833 961.833374,230.864975 961.833374,240.119797 C957.329224,239.677948 953.071960,239.260330 949.236938,238.332672 C950.098450,236.691605 950.918518,235.561447 950.921143,234.429398 C950.989502,204.861115 950.999146,175.292557 950.879700,145.724594 C950.874756,144.491028 949.528564,143.262848 948.807251,142.032166 z"/>
<path fill="#080909" opacity="1.000000" stroke="none" 
    d="M494.932495,143.985199 C494.932495,146.633713 494.932495,149.282227 494.932495,152.466949 C479.447540,152.466949 464.054138,152.466949 448.385925,152.466949 C448.385925,162.892502 448.385925,172.782028 448.385925,183.029175 C462.351776,183.029175 476.106995,183.029175 490.186646,183.029175 C490.186646,187.282913 490.186646,191.193054 490.186646,195.720673 C476.346252,195.720673 462.476288,195.720673 448.377380,195.720673 C448.377380,206.410629 448.377380,216.489075 448.377380,227.046906 C463.913452,227.046906 479.311737,227.046906 494.993164,227.046906 C494.993164,231.414749 494.993164,235.307907 494.993164,239.731644 C490.689087,239.731644 486.568451,239.729675 482.447845,239.732010 C468.124756,239.740082 453.801544,239.776794 439.478729,239.718933 C437.953064,239.712784 436.429626,239.156860 435.341431,238.341156 C436.181580,235.998886 436.932983,234.172287 436.937408,232.343887 C437.010162,202.232391 436.988831,172.120682 437.146057,141.831665 C436.588715,141.437134 435.873962,141.219986 435.159210,141.002808 C440.660980,140.727219 446.160431,140.379440 451.665344,140.200851 C455.467773,140.077499 459.277740,140.187943 463.678345,140.660919 C473.261292,141.304947 482.250183,141.492142 491.239960,141.605972 C491.488739,141.609131 491.747437,140.825394 492.001526,140.408600 C493.002533,140.704544 494.003510,141.000504 494.767487,141.808105 C494.664459,142.874908 494.798462,143.430054 494.932495,143.985199 z"/>
<path fill="#070807" opacity="1.000000" stroke="none" 
    d="M128.791626,179.027695 C128.791626,170.413651 128.791626,161.799622 128.791626,152.681671 C118.884224,152.681671 109.630272,152.681671 100.057022,152.681671 C100.057022,148.448105 100.057022,144.713974 100.057022,140.560806 C123.363724,140.560806 146.728043,140.560806 170.456833,140.560806 C170.456833,144.216873 170.456833,147.967758 170.456833,152.283600 C161.254074,152.283600 151.856216,152.283600 142.049988,152.283600 C142.049988,181.552612 142.049988,210.273102 142.049988,240.020309 C137.290253,239.599197 132.989532,239.218704 129.131485,238.336182 C130.044937,236.891113 130.922028,235.949875 130.926285,235.004700 C131.005676,217.405289 131.019165,199.805145 130.885040,182.206375 C130.876923,181.141556 129.520615,180.087021 128.791626,179.027695 z"/>
<path fill="#ec4899" opacity="1.000000" stroke="none" 
    d="M545.927795,222.076355 C552.741760,225.592651 559.554443,229.111267 566.370483,232.623642 C568.121948,233.526199 569.883484,234.409103 571.827515,235.588043 C570.980042,235.964752 569.794678,236.432541 568.933289,236.088638 C549.811096,228.453995 530.721069,220.738358 511.640106,213.000748 C510.518402,212.545868 509.524231,211.776535 507.178589,210.389435 C520.238831,209.965271 531.771790,209.590714 543.946289,209.052231 C544.587830,208.888321 544.917908,209.015945 544.812866,209.466354 C545.092041,213.949509 545.476196,217.982269 545.887024,222.019409 C545.913635,222.023819 545.927795,222.076355 545.927795,222.076355 z"/>
<path fill="#1E1F1F" opacity="1.000000" stroke="none" 
    d="M948.674866,142.482758 C949.528564,143.262848 950.874756,144.491028 950.879700,145.724594 C950.999146,175.292557 950.989502,204.861115 950.921143,234.429398 C950.918518,235.561447 950.098450,236.691605 949.251465,237.899506 C948.737122,227.535385 948.560059,217.094574 948.538757,206.653442 C948.495483,185.413513 948.536316,164.173386 948.674866,142.482758 z"/>
<path fill="#181818" opacity="1.000000" stroke="none" 
    d="M436.988617,142.009018 C436.988831,172.120682 437.010162,202.232391 436.937408,232.343887 C436.932983,234.172287 436.181580,235.998886 435.378296,237.912216 C434.879089,225.561340 434.725281,213.124710 434.692139,200.687775 C434.640778,181.431290 434.671814,162.174576 435.136505,142.469299 C436.066284,142.016754 436.527466,142.012894 436.988617,142.009018 z"/>
<path fill="#181818" opacity="1.000000" stroke="none" 
    d="M544.917908,209.015945 C544.917908,209.015945 544.587830,208.888321 544.414246,208.922516 C544.304932,206.901184 544.369202,204.845657 544.909546,202.202148 C545.590820,201.008652 545.973206,200.403702 545.975098,199.797562 C546.011719,187.853958 546.033569,175.910034 545.951111,163.966904 C545.944397,162.985016 545.167297,162.008469 544.748108,161.029434 C544.646240,159.933853 544.544434,158.838257 544.896973,157.197601 C545.148193,154.111450 544.944946,151.570404 544.741699,149.029343 C544.641418,147.283447 544.541138,145.537552 544.909607,143.208267 C545.170532,139.379379 544.962585,136.133896 544.754639,132.888397 C544.661560,128.573074 544.568420,124.257744 544.622803,119.502945 C548.729736,118.108803 552.689087,117.154137 556.648376,116.199471 C556.736816,116.616203 556.825256,117.032928 556.913696,117.449661 C556.822754,117.548531 556.740967,117.723244 556.639587,117.735489 C546.983459,118.901299 546.986328,118.900520 546.987549,128.725815 C546.991211,157.539719 547.000549,186.353607 546.975708,215.167496 C546.973999,217.151306 546.709045,219.134888 546.247192,221.597473 C545.927795,222.076355 545.913635,222.023819 545.976318,221.477722 C545.665222,216.959717 545.291565,212.987839 544.917908,209.015945 z"/>
<path fill="#181818" opacity="1.000000" stroke="none" 
    d="M128.648163,179.475769 C129.520615,180.087021 130.876923,181.141556 130.885040,182.206375 C131.019165,199.805145 131.005676,217.405289 130.926285,235.004700 C130.922028,235.949875 130.044937,236.891113 129.157990,237.898636 C128.662781,218.616669 128.583755,199.270264 128.648163,179.475769 z"/>
<path fill="#070807" opacity="1.000000" stroke="none" 
    d="M544.622620,161.448700 C545.167297,162.008469 545.944397,162.985016 545.951111,163.966904 C546.033569,175.910034 546.011719,187.853958 545.975098,199.797562 C545.973206,200.403702 545.590820,201.008652 545.062256,201.789093 C544.658325,188.598663 544.577698,175.233322 544.622620,161.448700 z"/>
<path fill="#070807" opacity="1.000000" stroke="none" 
    d="M491.544067,140.300247 C491.747437,140.825394 491.488739,141.609131 491.239960,141.605972 C482.250183,141.492142 473.261292,141.304947 464.135742,140.767838 C473.028320,140.335815 482.057465,140.263855 491.544067,140.300247 z"/>
<path fill="#070807" opacity="1.000000" stroke="none" 
    d="M544.627930,133.272171 C544.962585,136.133896 545.170532,139.379379 545.062012,142.794327 C544.664185,139.861160 544.582703,136.758560 544.627930,133.272171 z"/>
<path fill="#070807" opacity="1.000000" stroke="none" 
    d="M544.615356,149.455658 C544.944946,151.570404 545.148193,154.111450 545.049561,156.808075 C544.661438,154.603088 544.575195,152.242538 544.615356,149.455658 z"/>
<path fill="#ec4899" opacity="1.000000" stroke="none" 
    d="M550.760376,114.816391 C549.842041,115.119118 548.681763,115.220604 547.258423,115.186836 C548.169739,114.906105 549.344116,114.760635 550.760376,114.816391 z"/>
<path fill="#313231" opacity="1.000000" stroke="none" 
    d="M495.047302,143.808624 C494.798462,143.430054 494.664459,142.874908 494.732971,142.168472 C495.011017,142.555466 495.086548,143.093765 495.047302,143.808624 z"/>
<path fill="#070807" opacity="1.000000" stroke="none" 
    d="M437.146057,141.831665 C436.527466,142.012894 436.066284,142.016754 435.259216,142.015137 C434.867706,141.820694 434.822174,141.631760 434.967896,141.222809 C435.873962,141.219986 436.588715,141.437134 437.146057,141.831665 z"/>
<path fill="#1E1F1F" opacity="1.000000" stroke="none" 
    d="M962.801331,190.408264 C962.799683,190.480072 962.538757,190.680969 962.126343,190.768250 C962.163879,190.615555 962.352966,190.576477 962.801331,190.408264 z"/>
<path fill="none" opacity="1.000000" stroke="none" 
    d="M592.121826,196.272644 C614.419373,196.198441 636.717224,196.021286 659.014221,196.097473 C668.805908,196.130920 676.160583,204.567490 676.069824,215.068848 C675.986511,224.707382 668.721375,232.201660 659.042847,232.212341 C636.747742,232.236954 614.452454,232.085007 591.971436,231.299164 C591.897705,219.153305 592.009766,207.712982 592.121826,196.272644 z"/>
<path fill="none" opacity="1.000000" stroke="none" 
    d="M592.078369,148.157623 C614.385681,148.112213 636.693909,147.936890 659.000000,148.080627 C668.959290,148.144791 676.036255,156.531586 676.065735,166.999374 C676.091248,176.064865 666.779480,184.504303 658.348450,184.249847 C636.394043,183.587189 614.410095,183.902237 592.186340,183.061890 C591.982605,170.916885 592.030457,159.537247 592.078369,148.157623 z"/>
<path fill="#ec4899" opacity="1.000000" stroke="none" 
    d="M591.755432,196.160248 C592.009766,207.712982 591.897705,219.153305 591.582886,231.061508 C580.388916,226.016159 569.365967,220.564148 558.452820,214.900513 C557.288025,214.296036 556.076660,212.468628 556.052490,211.186569 C555.858154,200.873627 555.943726,190.555420 555.943726,179.384323 C568.115662,185.106598 579.752380,190.577225 591.755432,196.160248 z"/>
<path fill="#ec4899" opacity="1.000000" stroke="none" 
    d="M591.730164,148.020111 C592.030457,159.537247 591.982605,170.916885 591.858521,182.776733 C580.486450,177.693817 569.170532,172.170349 557.931641,166.494339 C557.002014,166.024841 556.044128,164.529419 556.029663,163.497635 C555.888184,153.387894 555.944336,143.275391 555.944336,132.327835 C568.121521,137.672791 579.751770,142.777710 591.730164,148.020111 z"/>
<path fill="none" opacity="1.000000" stroke="none" 
    d="M233.417023,151.163086 C264.704742,149.132477 282.818359,181.468567 269.969360,208.117126 C262.862305,222.857040 246.852173,231.330994 230.880524,228.737930 C214.127014,226.017944 201.314651,213.063248 199.171448,196.676620 C196.441605,175.804794 206.791443,158.247986 225.169769,152.740448 C227.698593,151.982635 230.368164,151.694504 233.417023,151.163086 z"/>
<path fill="none" opacity="1.000000" stroke="none" 
    d="M731.646851,161.659210 C744.210144,150.342819 761.358215,147.893524 774.935669,155.264313 C789.155396,162.983780 796.816162,179.213226 794.344543,195.800995 C792.125916,210.690384 784.693054,221.742096 770.386108,226.883301 C755.745728,232.144348 742.463379,228.753052 731.285828,217.944748 C717.905457,205.006348 715.116638,178.451324 731.646851,161.659210 z"/>
<path fill="none" opacity="1.000000" stroke="none" 
    d="M844.091187,169.217010 C855.765503,150.363525 875.171631,148.807800 888.046448,153.082352 C904.029419,158.388809 914.652832,174.889740 913.661499,192.385742 C912.649048,210.254028 900.915588,224.377533 883.748596,228.391708 C860.566467,233.812408 838.347717,215.194778 838.569336,190.521439 C838.635986,183.095642 840.043640,176.001312 844.091187,169.217010 z"/>
<path fill="#070807" opacity="1.000000" stroke="none" 
    d="M544.812866,209.466354 C545.291565,212.987839 545.665222,216.959717 545.949707,221.473312 C545.476196,217.982269 545.092041,213.949509 544.812866,209.466354 z"/>
  </g>
</svg>


